<svg xmlns="http://www.w3.org/2000/svg" width="13" height="9" viewBox="0 0 13 9">
  <defs>
    <style>
      .cls-1 {
        fill: #43cb83;
        fill-rule: evenodd;
      }
    </style>
  </defs>
  <path id="Check_Icon" data-name="Check Icon" class="cls-1" d="M243.317,1448.89a1.082,1.082,0,0,1,1.556,0l4.111,4.17a1.129,1.129,0,0,1,0,1.58,1.082,1.082,0,0,1-1.556,0l-4.111-4.17A1.129,1.129,0,0,1,243.317,1448.89Zm4.111,5.75a1.131,1.131,0,0,1,0-1.58l6.667-6.76a1.1,1.1,0,0,1,1.556,0,1.143,1.143,0,0,1,0,1.59l-6.667,6.75A1.082,1.082,0,0,1,247.428,1454.64Z" transform="translate(-243 -1446)"/>
</svg>
