<svg xmlns="http://www.w3.org/2000/svg" width="9" height="9" viewBox="0 0 9 9">
  <defs>
    <style>
      .cls-1 {
        fill: #e21e1e;
        fill-rule: evenodd;
      }
    </style>
  </defs>
  <path id="Check_Icon" data-name="Check Icon" class="cls-1" d="M475.428,1518.64a1.131,1.131,0,0,1,0-1.58l6.667-6.76a1.1,1.1,0,0,1,1.556,0,1.141,1.141,0,0,1,0,1.59l-6.667,6.75A1.082,1.082,0,0,1,475.428,1518.64Zm8.264,0a1.118,1.118,0,0,0,0-1.58l-6.761-6.76a1.12,1.12,0,0,0-1.577,1.59l6.761,6.75A1.107,1.107,0,0,0,483.692,1518.64Z" transform="translate(-475.031 -1510)"/>
</svg>
